# xmcd
#
# Track frame offsets:
# 150
# 13009
# 25447
# 37395
# 51937
# 65959
# 82560
# 102895
# 117938
# 131467
# 144573
# 163670
# 181125
# 194924
# 208429
# 223000
# 242810
# 256615
# 271206
# 285471
#
# Disc length: 4015 seconds
#
#
# Revision: 0
# Processed by: cddbd v1.5.2PL0 Copyright (c) Steve Scherf et al.
# Submitted via: FreeRIP 2.951 
#
DISCID=330fad14
DTITLE=Bonde do Forró - As 20 Mais Bonde do Forró
DYEAR=2006
DGENRE=Country
TTITLE0=Vira e Mexe
TTITLE1=Ainda Queima a Esperança
TTITLE2=Amor de Primeira
TTITLE3=Tô Fazendo Falta
TTITLE4=Nos Bares da Cidade
TTITLE5=Cada Volta é um Recomeço
TTITLE6=Se Não Tivesse Ido
TTITLE7=Porque Brigamos
TTITLE8=Mordida de Amor
TTITLE9=Inevitável
TTITLE10=Garota de Programa
TTITLE11=Insensível
TTITLE12=Cuida do Nosso Amor
TTITLE13=Por Um Gole a Mais
TTITLE14=Será
TTITLE15=Os Corações Não São Iguais
TTITLE16=O Grito da Galera
TTITLE17=Parabens Pro Nosso Amor
TTITLE18=Bebo Porque Gosto de Beber
TTITLE19=Milk Shake
EXTD=Cd de Camelô!
EXTT0=
EXTT1=
EXTT2=
EXTT3=
EXTT4=
EXTT5=
EXTT6=
EXTT7=
EXTT8=
EXTT9=
EXTT10=
EXTT11=
EXTT12=
EXTT13=
EXTT14=
EXTT15=
EXTT16=
EXTT17=
EXTT18=
EXTT19=
PLAYORDER=
